<?xml version="1.0" encoding="utf-8"?>
<!-- Generator: Adobe Adobe Illustrator 24.2.0, SVG Export Plug-In . SVG Version: 6.00 Build 0)  -->
<svg version="1.1" xmlns="http://www.w3.org/2000/svg" xmlns:xlink="http://www.w3.org/1999/xlink" x="0px" y="0px" width="1920px"
	 height="1080px" viewBox="0 0 1920 1080" style="enable-background:new 0 0 1920 1080;" xml:space="preserve">
<style type="text/css">
	.st0{fill:#FFFFFF;stroke:#000000;stroke-width:14;stroke-miterlimit:10;}
	.st1{fill:url(#SVGID_1_);}
</style>
<g id="Layer_1">
	<ellipse class="st0" cx="720.59" cy="456.04" rx="405" ry="404"/>
	<g>
		<g>
			<path d="M605.25,302.24c-23.18,75.42-46.35,150.83-69.53,226.25c-6.55,21.32-13.1,42.64-19.66,63.96
				c0.13-0.42,6.28-3.43,5.79-3.16c4.62-2.6,9.22-5.24,13.81-7.9c4.59-2.65,9.18-5.31,13.75-8.01c1.06-0.63,5.3-2.37,5.63-3.43
				c23.18-75.42,46.35-150.83,69.53-226.25c6.55-21.32,13.1-42.64,19.66-63.96c-0.13,0.42-6.28,3.43-5.79,3.16
				c-4.62,2.6-9.22,5.24-13.81,7.9c-4.59,2.65-9.18,5.31-13.75,8.01C609.82,299.43,605.57,301.18,605.25,302.24L605.25,302.24z"/>
		</g>
	</g>
	<g>
		<g>
			<path d="M942.35,295.56c-6.02-7.44-14.55-2.74-21.13,0.97c-10.26,5.78-20.5,11.62-30.58,17.71c-3.64,2.2-6.75,4.47-9.35,7.89
				c-9.75,12.79-15.93,32.86-12.79,48.84c1.42,7.19,6.18,14.51,13.94,15.71c8.19,1.27,16.96-4.77,23.79-8.45
				c23.83-12.82,47.82-26.23,69.93-41.89c-5.97,4.23-13.24,7.38-19.6,11.06c-6.44,3.72-13.29,7.13-19.37,11.44
				c-5.12,3.63-10.36,7.04-15.66,10.4c-9.27,5.87,33.69-18.89,22.22-12.81c-1.1,0.58-2.2,1.18-3.3,1.75
				c-2.94,1.54-5.91,3.18-9.01,4.38c-9.85,3.82-19.2-0.04-22.89-10.12c-3.51-9.58-1.56-21.32,1.19-30.85
				c2.78-9.65,7.73-22.16,16.61-27.77c-12.53,7.23-25.05,14.46-37.58,21.7c4.94-2.52,11.04-1.89,14.62,2.53
				c0.49,0.61,18.06-10.17,19.6-11.06C924.44,306.16,942.11,295.27,942.35,295.56L942.35,295.56z"/>
		</g>
	</g>
	<path d="M436.75,355.96c5.27-46.36,34.38-86.09,68.46-116.29c8.66-7.68,17.75-14.88,27.22-21.55c4.51-3.17,9.13-6.15,13.79-9.09
		c10.76-6.79-33.79,18.9-22.47,12.99c1.03-0.54,2.06-1.09,3.1-1.63c3.39-1.76,6.83-3.45,10.3-5.05
		c21.65-9.97,44.76-17.01,68.5-19.62c22.39-2.47,45.75-1.18,67.21,6.01c19.1,6.39,37.68,18.54,45.4,37.92
		c15.78,39.67-13.03,84.7-39.76,112.03c-16.28,16.64-35.09,30.36-54.85,42.56c7.07-4.08,14.13-8.16,21.2-12.24
		c-0.96,0.54-1.93,1.07-2.9,1.59c-1.09,0.59-2.19,1.17-3.28,1.76c-2.75,1.46-5.51,2.88-8.28,4.29c-5.88,2.97-11.82,5.83-17.81,8.58
		c-11.38,5.23-22.93,10.08-34.59,14.64c-23.12,9.04-46.8,16.77-71.06,22.15c-12.35,2.74-24.83,4.88-37.4,6.28
		c-2.15,0.24-6.81,1.69-8.69,0.85c-0.32,0.03-0.65,0.05-0.97,0.08c0.47-0.77,0.97-1.52,1.49-2.26c0.52-0.73,1.06-1.45,1.61-2.15
		c3.02-3.79,6.61-6.92,10.52-9.74c12.42-8.96-45.51,24.6-30.85,17.77c1.02-0.47,2.02-0.95,3.05-1.38c2.15-0.91,4.36-1.7,6.59-2.4
		c4.77-1.49,9.68-2.49,14.64-3.09c9.41-1.13,19.02-0.78,28.31,1.11c21,4.25,39.45,16.15,54.94,30.57
		c32.84,30.59,52.27,73.26,88.66,100.36c36.85,27.44,84.36,38.67,129.76,37.82c24.24-0.45,48.44-4.5,71.43-12.23
		c10.78-3.63,21.29-8.1,31.37-13.38c17.79-9.33,35.49-19.41,52.38-30.3c32.34-20.86,64.12-56.9,60.78-98.07
		c-1.56-19.26-13.16-36.32-31.65-42.83c-17.01-6-36.41-3.19-52.77,3.53c-16.89,6.94-32.62,17.39-48.2,26.74
		c-10.04,6.03-19.28,12.99-27.96,20.85c-18.33,16.61-35.12,35-51.37,53.61c-33.12,37.94-63.77,78.05-98.8,114.31
		c-16.8,17.39-34.57,33.9-53.7,48.7c-9.61,7.44-19.55,14.45-29.87,20.87c-13.36,8.32,30.97-17.3,18.21-10.51
		c-2.38,1.27-4.78,2.51-7.2,3.71c-5.86,2.92-11.82,5.71-18.01,7.88c-16.93,5.91-45.4,6.07-48.9-16.85
		c-1.33-8.75,1.93-17.47,6.35-24.88c2.64-4.44,5.86-8.55,9.52-12.19c1.68-1.67,3.45-3.24,5.31-4.72c1.25-0.99,2.54-1.89,3.85-2.81
		c-32.84,17.65-43.09,23.61-30.77,17.89c0.89-0.43,1.81-0.83,2.74-1.18c43-17.04,79.44,19.87,109.31,44.83
		c16.46,13.75,34.56,24.25,55.55,29.34c22.21,5.39,45.83,4.91,67.86-1.08c12.02-3.27,23.07-8.45,33.89-14.54
		c11.94-6.73,23.89-13.5,35.58-20.66c4.31-2.64,8.68-5.33,12.59-8.56c6.06-4.99,12.45-13.28,5.49-20.29
		c-5.88-5.92-15.42-7.37-23.37-7.17c-29.18,0.74-56.07,19.48-80.19,33.6c-20.48,11.99-38.42,25.96-55.5,42.43
		c-16.7,16.1-32.7,32.97-51.45,46.76c5.85-4.3,13.29-7.41,19.6-11.06c6.42-3.71,13.39-7.04,19.37-11.44
		c19.64-14.44,36.26-32.27,53.83-49.04c7.97-7.61,16.17-15.02,24.91-21.74c4.42-3.4,8.98-6.57,13.67-9.59
		c11.45-7.36-40.37,22.22-26.59,15.38c1.54-0.76,3.06-1.55,4.61-2.28c2.78-1.31,5.6-2.52,8.45-3.64
		c10.65-4.19,22.18-7.26,33.71-6.87c7.38,0.25,17.26,2.46,21.58,9.13c5.48,8.46-4.73,16.88-10.93,21.21
		c-1.08,0.76-2.2,1.48-3.31,2.19c-0.44,0.28-0.88,0.56-1.32,0.83c-6.19,3.85-1.64,1.24,13.65-7.84c4.98-2.89,9.97-5.77,14.95-8.66
		c-1.34,0.7-2.69,1.37-4.06,2.01c-1.08,0.5-2.17,0.99-3.26,1.46c-6.05,2.6-12.3,4.71-18.67,6.35c-22.35,5.74-46.2,5.89-68.53,0.01
		c-21.62-5.69-39.71-17.22-56.54-31.62c-15.07-12.89-29.56-26.9-47.33-36.09c-19.22-9.94-42.26-13.79-62.41-4.18
		c-11.41,5.44-22.23,12.35-33.13,18.73c-6.17,3.61-12.51,7.09-18.02,11.68c-7.96,6.65-14.54,15.44-18.09,25.23
		c-2.69,7.42-3.25,16.06,0.68,23.17c4.8,8.69,15.01,12.48,24.46,12.98c11.97,0.64,23.61-3.89,34.26-8.87
		c14.63-6.84,28.6-15.01,42.58-23.07c24.29-14.02,47.81-28.6,69.51-46.44c38.79-31.9,71.45-70.21,103.48-108.67
		c16.51-19.83,32.95-39.73,50.23-58.89c16.52-18.32,33.64-37.14,53.34-52.1c2.38-1.81,4.82-3.53,7.3-5.19
		c13.81-9.24-42.53,23.18-28.47,16.33c0.95-0.46,1.89-0.95,2.85-1.4c4.51-2.1,9.21-3.81,14-5.16c8.73-2.45,17.9-3.68,26.96-3.07
		c18.71,1.26,35.57,11.33,43.08,28.95c7.94,18.63,4.03,40.57-4.37,58.34c-8.97,18.97-23.28,35.08-39.8,47.85
		c-4.5,3.48-9.21,6.58-13.97,9.68c-5.84,3.8,37.62-20.95,25.53-14.83c-1.3,0.66-2.58,1.33-3.88,1.98c-3.16,1.56-6.36,3.03-9.59,4.42
		c-11.09,4.76-22.58,8.58-34.29,11.49c-24.2,6.02-49.34,8.18-74.22,6.55c-45.44-2.98-91.57-18.44-124.71-50.65
		c-32.12-31.23-51.73-73.69-88.88-100.02c-17.47-12.38-37.96-19.98-59.55-19.3c-9.47,0.3-18.99,2.04-27.81,5.56
		c-6.03,2.41-11.62,5.75-17.25,8.95c-10.73,6.1-21.7,12.03-32.07,18.75c-3.62,2.35-7.03,5.02-10,8.15
		c-1.54,1.63-2.97,3.35-4.26,5.19c-0.26,0.37-1.55,2-1.49,2.26c0.03,0.14,5.02-0.45,5.8-0.52c12.94-1.29,25.8-3.37,38.51-6.09
		c24.6-5.27,48.61-12.97,72.05-22.06c22.95-8.91,45.5-18.96,67.18-30.65c28.5-15.37,57.48-31.25,83.52-50.63
		c34.01-25.32,68.31-62.42,73-106.54c2.2-20.74-4.53-40.53-20.88-53.92c-16.07-13.16-37.12-19.07-57.45-21.25
		c-24.7-2.65-49.81,0.41-73.58,7.39c-28.49,8.36-53.92,22.9-79.45,37.73C486.85,243,446.5,273,420.23,315.81
		c-11.73,19.11-19.91,40.3-22.45,62.64c0.03-0.24,6.5-3.56,5.79-3.16c4.62-2.6,9.22-5.24,13.81-7.9c4.59-2.65,9.18-5.31,13.75-8.01
		C431.99,358.88,436.66,356.77,436.75,355.96L436.75,355.96z"/>
	<g>
		<g>
			<path d="M716.18,418.47c-6.02-7.44-14.55-2.74-21.13,0.97c-10.26,5.78-20.5,11.62-30.58,17.71c-3.64,2.2-6.75,4.47-9.35,7.89
				c-9.75,12.79-15.93,32.86-12.79,48.84c1.42,7.19,6.18,14.51,13.94,15.71c8.19,1.27,16.96-4.77,23.79-8.45
				c23.83-12.82,47.82-26.23,69.93-41.89c-5.97,4.23-13.24,7.38-19.6,11.06c-6.44,3.72-13.29,7.13-19.37,11.44
				c-5.12,3.63-10.36,7.04-15.66,10.4c-9.27,5.87,33.69-18.89,22.22-12.81c-1.1,0.58-2.2,1.18-3.3,1.75
				c-2.95,1.54-5.91,3.18-9.01,4.38c-9.85,3.82-19.2-0.04-22.89-10.12c-3.51-9.58-1.56-21.32,1.19-30.85
				c2.78-9.65,7.73-22.16,16.61-27.77c-12.53,7.23-25.05,14.46-37.58,21.7c4.94-2.52,11.04-1.89,14.62,2.53
				c0.49,0.61,18.06-10.17,19.6-11.06C698.27,429.07,715.94,418.17,716.18,418.47L716.18,418.47z"/>
		</g>
	</g>
	<g>
		<g>
			<path d="M653.53,481.06c15.7-7.91,31.39-15.82,47.09-23.73c8.21-4.14,16.1-9.08,24.05-13.7c3.87-2.25,7.76-4.5,11.59-6.81
				c0.35-0.21,3.81-2.26,1.88-1.28c-15.7,7.91-31.39,15.82-47.09,23.73c-8.21,4.14-16.1,9.08-24.05,13.7
				c-3.87,2.25-7.76,4.5-11.59,6.81C655.06,479.99,651.59,482.04,653.53,481.06L653.53,481.06z"/>
		</g>
	</g>
	<g>
		<g>
			<path d="M739.17,434.96c2.1-8.09,0.56-13.88-7.46-17.32c-8.22-3.52-17.63-3.25-26.39-3.18c-1.17,0.01-5.37,2.92-5.79,3.16
				c-4.62,2.6-9.22,5.24-13.81,7.9c-4.59,2.65-9.18,5.31-13.75,8.01c-1.24,0.73-4.33,3.42-5.63,3.43
				c8.75-0.06,18.17-0.34,26.39,3.18c7.97,3.42,9.55,9.25,7.46,17.32c0.1-0.37,6.35-3.47,5.79-3.16c4.62-2.6,9.22-5.24,13.81-7.9
				c4.59-2.65,9.18-5.31,13.75-8.01C734.54,437.8,738.91,435.96,739.17,434.96L739.17,434.96z"/>
		</g>
	</g>
	<path d="M685.76,664.31c13.83,7.79,28.1,14.75,42.96,20.36c0.54,0.2,6.21-3.4,5.79-3.16c4.62-2.6,9.22-5.24,13.81-7.9
		c4.59-2.65,9.18-5.31,13.75-8.01c0.79-0.47,5.05-3.65,5.63-3.43c-14.86-5.62-29.12-12.57-42.96-20.36c-0.38-0.21-6.4,3.5-5.79,3.16
		c-4.62,2.6-9.22,5.24-13.81,7.9c-4.59,2.65-9.18,5.31-13.75,8.01C690.7,661.28,686.12,664.51,685.76,664.31L685.76,664.31z"/>
	<linearGradient id="SVGID_1_" gradientUnits="userSpaceOnUse" x1="966.1273" y1="688.6956" x2="966.1273" y2="426.5755">
		<stop  offset="0" style="stop-color:#000000"/>
		<stop  offset="1" style="stop-color:#000000"/>
	</linearGradient>
	<path class="st1" d="M948.47,523.8c-7.49,1.94-16.66-0.37-21.28-6.93c-4.6-6.55-3.32-15.36-0.62-22.4
		c2.55-6.65,6.81-12.54,11.85-17.52c3-2.96,6.28-5.58,9.76-7.95c13.66-9.31-46.56,24.98-27.89,16.26c2.09-0.98,4.24-1.85,6.4-2.65
		c16.12-5.93,34.36-7.24,51.03-2.82c15.78,4.19,30.5,14.99,30.45,32.78c-0.05,21.42-19.32,37.51-33.83,50.65
		c1.27-1.15,4.55-2.46,5.79-3.16c4.62-2.6,9.22-5.24,13.81-7.9c4.59-2.65,9.18-5.31,13.75-8.01c1.8-1.07,4.08-2.03,5.63-3.43
		c14.26-12.91,32.8-28.39,33.79-49.21c0.94-19.68-15.99-31.11-33.3-34.92c-18.7-4.12-38.71-1.43-55.92,6.82
		c-6.76,3.24-13.21,7.16-19.71,10.89c-9.46,5.42-19.17,10.63-28.24,16.7c-6.86,4.59-13.09,10.2-17.7,17.1
		c-4.83,7.23-8.74,17.13-6.47,25.91c2.63,10.15,14.16,14.78,23.73,12.3c1.76-0.46,4.43-2.39,5.79-3.16c4.62-2.6,9.22-5.24,13.81-7.9
		c4.59-2.65,9.18-5.31,13.75-8.01C944.47,526.27,946.7,524.26,948.47,523.8L948.47,523.8z"/>
	<g>
		<g>
			<path d="M765.23,306.57c-2.46,50.16-5.38,100.31-8.76,150.42c0.01-0.21,6.54-3.58,5.79-3.16c4.62-2.6,9.22-5.24,13.81-7.9
				c4.59-2.65,9.18-5.31,13.75-8.01c0.82-0.48,5.58-2.68,5.63-3.43c3.38-50.11,6.3-100.25,8.76-150.42
				c-0.01,0.19-6.56,3.59-5.79,3.16c-4.62,2.6-9.22,5.24-13.81,7.9c-4.59,2.65-9.18,5.31-13.75,8.01
				C770.05,303.61,765.26,305.84,765.23,306.57L765.23,306.57z"/>
		</g>
	</g>
	<g>
		<g>
			<path d="M817.16,382.99c-0.85,14.34-1.85,28.68-3,43c0.02-0.22,6.53-3.58,5.79-3.16c4.62-2.6,9.22-5.24,13.81-7.9
				c4.59-2.65,9.18-5.31,13.75-8.01c0.83-0.49,5.57-2.66,5.63-3.43c1.15-14.32,2.15-28.66,3-43c-0.01,0.2-6.55,3.59-5.79,3.16
				c-4.62,2.6-9.22,5.24-13.81,7.9c-4.59,2.65-9.18,5.31-13.75,8.01C821.97,380.04,817.2,382.24,817.16,382.99L817.16,382.99z"/>
		</g>
	</g>
	<g>
		<g>
			<path d="M820.16,315.99c-0.85,14.34-1.85,28.68-3,43c0.02-0.22,6.53-3.58,5.79-3.16c4.62-2.6,9.22-5.24,13.81-7.9
				c4.59-2.65,9.18-5.31,13.75-8.01c0.83-0.49,5.57-2.66,5.63-3.43c1.15-14.32,2.15-28.66,3-43c-0.01,0.2-6.55,3.59-5.79,3.16
				c-4.62,2.6-9.22,5.24-13.81,7.9c-4.59,2.65-9.18,5.31-13.75,8.01C824.97,313.04,820.2,315.24,820.16,315.99L820.16,315.99z"/>
		</g>
	</g>
</g>
<g id="Layer_2">
</g>
</svg>
